<svg width="57" height="45" viewBox="0 0 57 45" fill="none" xmlns="http://www.w3.org/2000/svg">
<g clip-path="url(#clip0_1602_10)">
<path fill-rule="evenodd" clip-rule="evenodd" d="M28.5 20.4545H31.863C35.34 20.4545 37.2169 24.5536 34.9532 27.2086L31.6594 31.0684C32.0156 33.3578 33.2178 35.4281 35.0263 36.8661C36.8347 38.3041 39.1163 39.0039 41.4157 38.826C43.7151 38.6481 45.8632 37.6055 47.4312 35.9063C48.9992 34.2071 49.8719 31.9763 49.875 29.6591C49.875 28.8453 50.1967 28.0649 50.7694 27.4895C51.342 26.9141 52.1187 26.5909 52.9286 26.5909C53.7384 26.5909 54.5151 26.9141 55.0878 27.4895C55.6604 28.0649 55.9821 28.8453 55.9821 29.6591C55.9821 32.8789 54.9739 36.017 53.1002 38.6291C51.2265 41.2411 48.5824 43.1946 45.5424 44.2127C42.5024 45.2309 39.2206 45.2622 36.1619 44.3022C33.1032 43.3421 30.4227 41.4395 28.5 38.8636C26.5773 41.4395 23.8968 43.3421 20.8381 44.3022C17.7794 45.2622 14.4976 45.2309 11.4576 44.2127C8.41758 43.1946 5.77346 41.2411 3.89978 38.6291C2.0261 36.017 1.01785 32.8789 1.01785 29.6591C1.01785 28.8453 1.33957 28.0649 1.91222 27.4895C2.48488 26.9141 3.26157 26.5909 4.07142 26.5909C4.88128 26.5909 5.65797 26.9141 6.23063 27.4895C6.80328 28.0649 7.125 28.8453 7.125 29.6591C7.12145 31.9804 7.99093 34.2173 9.55927 35.9218C11.1276 37.6263 13.279 38.6724 15.5824 38.8506C17.8858 39.0288 20.1712 38.3259 21.9808 36.8828C23.7903 35.4397 24.9904 33.3629 25.3406 31.0684L22.0468 27.2086C19.7831 24.5536 21.66 20.4545 25.1411 20.4545H28.5Z" fill="#461A02"/>
<path d="M42.75 12.2727C46.1229 12.2727 48.8571 9.52538 48.8571 6.13636C48.8571 2.74734 46.1229 0 42.75 0C39.3771 0 36.6429 2.74734 36.6429 6.13636C36.6429 9.52538 39.3771 12.2727 42.75 12.2727Z" fill="#461A02"/>
<path d="M14.25 12.2727C17.6229 12.2727 20.3571 9.52538 20.3571 6.13636C20.3571 2.74734 17.6229 0 14.25 0C10.8771 0 8.14285 2.74734 8.14285 6.13636C8.14285 9.52538 10.8771 12.2727 14.25 12.2727Z" fill="#461A02"/>
</g>
<defs>
<clipPath id="clip0_1602_10">
<rect width="57" height="45" fill="white"/>
</clipPath>
</defs>
</svg>
